REM DIRINDEX 1\2,1\3,1\4,1\5\6,1\5\7,1\8
REM DIRNAME cjc115,folder01,folder02,folder03,folder04,folder05,folder06,folder07
TITLE ""
FILE "108 Åy108ÅzUnit6 (1225 vessel_1236 biological).mp3" MP3
  TRACK 01 AUDIO
    TITLE "0:"
    INDEX 01 00:00:00
  TRACK 02 AUDIO
    TITLE "2:cjc115_4198"
    INDEX 01 00:00:07
  TRACK 03 AUDIO
    TITLE "0:"
    INDEX 01 00:01:21
  TRACK 04 AUDIO
    TITLE "3:cjc115_4199"
    INDEX 01 00:01:28
  TRACK 05 AUDIO
    TITLE "0:"
    INDEX 01 00:02:16
  TRACK 06 AUDIO
    TITLE "4:cjc115_4200"
    INDEX 01 00:02:26
  TRACK 07 AUDIO
    TITLE "0:"
    INDEX 01 00:05:61
  TRACK 08 AUDIO
    TITLE "2:cjc115_4201"
    INDEX 01 00:07:00
  TRACK 09 AUDIO
    TITLE "0:"
    INDEX 01 00:08:23
  TRACK 10 AUDIO
    TITLE "3:cjc115_4202"
    INDEX 01 00:08:30
  TRACK 11 AUDIO
    TITLE "0:"
    INDEX 01 00:10:65
  TRACK 12 AUDIO
    TITLE "4:cjc115_4203"
    INDEX 01 00:10:74
  TRACK 13 AUDIO
    TITLE "0:"
    INDEX 01 00:15:01
  TRACK 14 AUDIO
    TITLE "2:cjc115_4204"
    INDEX 01 00:16:10
  TRACK 15 AUDIO
    TITLE "0:"
    INDEX 01 00:17:23
  TRACK 16 AUDIO
    TITLE "3:cjc115_4205"
    INDEX 01 00:17:31
  TRACK 17 AUDIO
    TITLE "0:"
    INDEX 01 00:19:63
  TRACK 18 AUDIO
    TITLE "4:cjc115_4206"
    INDEX 01 00:20:02
  TRACK 19 AUDIO
    TITLE "0:"
    INDEX 01 00:23:44
  TRACK 20 AUDIO
    TITLE "2:cjc115_4207"
    INDEX 01 00:24:53
  TRACK 21 AUDIO
    TITLE "0:"
    INDEX 01 00:25:68
  TRACK 22 AUDIO
    TITLE "3:cjc115_4208"
    INDEX 01 00:26:01
  TRACK 23 AUDIO
    TITLE "0:"
    INDEX 01 00:28:43
  TRACK 24 AUDIO
    TITLE "4:cjc115_4209"
    INDEX 01 00:28:49
  TRACK 25 AUDIO
    TITLE "0:"
    INDEX 01 00:31:47
  TRACK 26 AUDIO
    TITLE "2:cjc115_4210"
    INDEX 01 00:32:52
  TRACK 27 AUDIO
    TITLE "0:"
    INDEX 01 00:33:73
  TRACK 28 AUDIO
    TITLE "3:cjc115_4211"
    INDEX 01 00:34:06
  TRACK 29 AUDIO
    TITLE "0:"
    INDEX 01 00:35:35
  TRACK 30 AUDIO
    TITLE "4:cjc115_4212"
    INDEX 01 00:35:45
  TRACK 31 AUDIO
    TITLE "0:"
    INDEX 01 00:40:13
  TRACK 32 AUDIO
    TITLE "2:cjc115_4213"
    INDEX 01 00:41:22
  TRACK 33 AUDIO
    TITLE "0:"
    INDEX 01 00:42:31
  TRACK 34 AUDIO
    TITLE "3:cjc115_4214"
    INDEX 01 00:42:37
  TRACK 35 AUDIO
    TITLE "0:"
    INDEX 01 00:44:61
  TRACK 36 AUDIO
    TITLE "4:cjc115_4215"
    INDEX 01 00:44:71
  TRACK 37 AUDIO
    TITLE "0:"
    INDEX 01 00:48:49
  TRACK 38 AUDIO
    TITLE "2:cjc115_4216"
    INDEX 01 00:49:61
  TRACK 39 AUDIO
    TITLE "0:"
    INDEX 01 00:51:11
  TRACK 40 AUDIO
    TITLE "3:cjc115_4217"
    INDEX 01 00:51:15
  TRACK 41 AUDIO
    TITLE "0:"
    INDEX 01 00:52:26
  TRACK 42 AUDIO
    TITLE "4:cjc115_4218"
    INDEX 01 00:52:36
  TRACK 43 AUDIO
    TITLE "0:"
    INDEX 01 00:56:08
  TRACK 44 AUDIO
    TITLE "2:cjc115_4219"
    INDEX 01 00:57:15
  TRACK 45 AUDIO
    TITLE "0:"
    INDEX 01 00:58:66
  TRACK 46 AUDIO
    TITLE "3:cjc115_4220"
    INDEX 01 00:58:71
  TRACK 47 AUDIO
    TITLE "0:"
    INDEX 01 01:01:38
  TRACK 48 AUDIO
    TITLE "4:cjc115_4221"
    INDEX 01 01:01:44
  TRACK 49 AUDIO
    TITLE "0:"
    INDEX 01 01:04:31
  TRACK 50 AUDIO
    TITLE "2:cjc115_4222"
    INDEX 01 01:05:42
  TRACK 51 AUDIO
    TITLE "0:"
    INDEX 01 01:06:67
  TRACK 52 AUDIO
    TITLE "3:cjc115_4223"
    INDEX 01 01:07:02
  TRACK 53 AUDIO
    TITLE "0:"
    INDEX 01 01:09:16
  TRACK 54 AUDIO
    TITLE "4:cjc115_4224"
    INDEX 01 01:09:26
  TRACK 55 AUDIO
    TITLE "0:"
    INDEX 01 01:13:67
  TRACK 56 AUDIO
    TITLE "2:cjc115_4225"
    INDEX 01 01:15:03
  TRACK 57 AUDIO
    TITLE "0:"
    INDEX 01 01:16:16
  TRACK 58 AUDIO
    TITLE "3:cjc115_4226"
    INDEX 01 01:16:26
  TRACK 59 AUDIO
    TITLE "0:"
    INDEX 01 01:17:33
  TRACK 60 AUDIO
    TITLE "4:cjc115_4227"
    INDEX 01 01:17:37
  TRACK 61 AUDIO
    TITLE "0:"
    INDEX 01 01:21:37
  TRACK 62 AUDIO
    TITLE "2:cjc115_4228"
    INDEX 01 01:22:48
  TRACK 63 AUDIO
    TITLE "0:"
    INDEX 01 01:23:63
  TRACK 64 AUDIO
    TITLE "3:cjc115_4229"
    INDEX 01 01:23:71
  TRACK 65 AUDIO
    TITLE "0:"
    INDEX 01 01:25:17
  TRACK 66 AUDIO
    TITLE "4:cjc115_4230"
    INDEX 01 01:25:25
  TRACK 67 AUDIO
    TITLE "0:"
    INDEX 01 01:28:49
  TRACK 68 AUDIO
    TITLE "2:cjc115_4231"
    INDEX 01 01:29:58
  TRACK 69 AUDIO
    TITLE "0:"
    INDEX 01 01:31:20
  TRACK 70 AUDIO
    TITLE "3:cjc115_4232"
    INDEX 01 01:31:26
  TRACK 71 AUDIO
    TITLE "0:"
    INDEX 01 01:34:61
  TRACK 72 AUDIO
    TITLE "4:cjc115_4233"
    INDEX 01 01:34:73
  TRACK 73 AUDIO
    TITLE "0:"
    INDEX 01 01:39:63
